<svg width="110" height="105" viewBox="0 0 110 105" fill="none" xmlns="http://www.w3.org/2000/svg">
<g id="Business Handshake" clip-path="url(#clip0_3_6050)">
<g id="icon">
<path fill-rule="evenodd" clip-rule="evenodd" d="M51.6704 29.8289L52.0715 29.4875C56.1053 26.0548 61.2515 24.0496 66.6486 23.8079L84.5696 23.0051L109.669 11.9677L109.02 61.3411L87.9324 72.5685L61.8512 47.3538L88.7001 73.3321L64.1191 90.7702C58.9218 94.5037 52.0014 94.7489 46.5167 91.3942L0.000470745 65.3457V14.8901L21.3662 24.3818L36.9136 21.6591C42.1814 20.7366 47.5678 22.2555 51.5919 25.7981C52.7098 26.9381 52.7166 28.6827 51.6704 29.8289Z" fill="#7AF1FF"/>
<path fill-rule="evenodd" clip-rule="evenodd" d="M107.199 16.0352C109.552 14.7485 110.368 11.8844 109.019 9.63796C107.672 7.39147 104.671 6.61336 102.317 7.89999L83.1561 18.3756L66.4184 19.1254C62.0236 19.3223 57.7665 20.4867 53.9658 22.4945C48.9481 18.5446 42.4381 16.8635 36.0273 17.9861L22.2423 20.4002L7.3437 12.2903C4.98774 11.0078 1.98873 11.7913 0.645226 14.0402C-0.698278 16.289 0.122479 19.1517 2.47844 20.4342L18.9335 29.3913C19.9387 29.9384 21.1141 30.1292 22.2523 29.9299L37.7996 27.2072C40.5558 26.7245 43.3809 27.1826 45.8481 28.5037L36.5904 36.382L36.5454 36.4207C30.9849 41.1919 30.1225 49.2181 34.5604 54.9693C39.3934 61.2326 48.6751 62.478 55.1288 57.7271L61.119 53.3175L80.6889 72.2373L61.1898 86.0707L61.1663 86.0872C57.612 88.6402 52.9261 88.8097 49.166 86.5102L7.56047 61.0622C5.27694 59.6655 2.23959 60.3002 0.776367 62.48C-0.686858 64.6598 -0.0218681 67.559 2.26166 68.9558L43.8672 94.4039C51.072 98.8102 60.22 98.4922 67.0591 93.5872L67.0718 93.5782L90.5229 76.9417C91.0006 76.6027 91.3959 76.1962 91.7038 75.7462L106.997 65.1322C109.191 63.6098 109.676 60.6782 108.081 58.5843C106.486 56.4905 103.415 56.0273 101.221 57.5497L88.4596 66.4067L75.766 54.1345C79.4554 52.9625 82.7381 50.722 84.7998 47.8473C86.3319 45.7111 85.7599 42.7938 83.5214 41.3315C81.2837 39.869 78.2274 40.4153 76.6954 42.5515C75.8107 43.7852 73.9077 45.0744 71.5749 45.5147C69.4329 45.9189 67.2221 45.5612 65.3012 44.0174L65.0551 43.7795C63.3121 42.0944 60.5262 41.9148 58.5618 43.361L49.131 50.3034C47.0409 51.842 44.0348 51.4396 42.4682 49.4094C41.0246 47.5385 41.3103 44.9254 43.1264 43.38L43.1631 43.3484L55.3393 32.9864C55.4554 32.8876 55.5727 32.7902 55.691 32.6945C56.0618 32.5053 56.4131 32.2673 56.7346 31.98C56.8242 31.8999 56.91 31.8174 56.9919 31.7326C59.885 29.7821 63.3129 28.6498 66.8788 28.49L84.7998 27.6873C85.5768 27.6525 86.3343 27.4418 87.01 27.0726L107.199 16.0352Z" fill="#0C098C"/>
</g>
</g>
<defs>
<clipPath id="clip0_3_6050">
<rect width="110" height="105" fill="white"/>
</clipPath>
</defs>
</svg>
