<svg width="110" height="105" viewBox="0 0 110 105" fill="none" xmlns="http://www.w3.org/2000/svg">
<g id="Coin Share" clip-path="url(#clip0_3_6051)">
<g id="icon">
<path fill-rule="evenodd" clip-rule="evenodd" d="M83.4821 24.375C83.4821 20.7506 80.4045 17.8125 76.6073 17.8125C72.8104 17.8125 69.7323 20.7506 69.7323 24.375V39.375C69.7323 42.9994 72.8104 45.9375 76.6073 45.9375C80.4045 45.9375 83.4821 42.9994 83.4821 39.375V24.375ZM34.1717 100.312H84.7919C88.4078 100.312 91.3393 97.5143 91.3393 94.0628C91.3393 87.159 85.4763 81.5625 78.2442 81.5625H43.0546C44.1889 81.1793 45.2536 80.5545 46.1611 79.6882C49.4156 76.5817 49.4156 71.5451 46.1611 68.4384L37.0137 59.7068C34.0667 56.8937 30.0697 55.3134 25.902 55.3134H0.00191823L0.00312018 81.4072L24.1116 96.8355C26.9357 99.0825 30.4955 100.312 34.1717 100.312Z" fill="#FDDC5C"/>
<path fill-rule="evenodd" clip-rule="evenodd" d="M43.2144 31.875C43.2144 14.2709 58.1649 0 76.6073 0C95.0496 0 110 14.2709 110 31.875C110 49.4791 95.0496 63.75 76.6073 63.75C58.1649 63.75 43.2144 49.4791 43.2144 31.875ZM83.4821 24.375C83.4821 20.7506 80.4045 17.8125 76.6073 17.8125C72.8104 17.8125 69.7323 20.7506 69.7323 24.375V39.375C69.7323 42.9994 72.8104 45.9375 76.6073 45.9375C80.4045 45.9375 83.4821 42.9994 83.4821 39.375V24.375ZM1.13832 78.5618C2.87457 76.5728 5.9711 76.3043 8.05464 77.9618L27.2554 93.2347C29.1969 94.779 31.6443 95.625 34.1716 95.625H84.7921C85.6956 95.625 86.4287 94.9252 86.4287 94.0628C86.4287 89.748 82.7641 86.25 78.2441 86.25H43.7977C39.3533 87.4185 34.3954 86.3363 30.9027 83.0018L25.0099 77.3768C23.0921 75.5467 23.0921 72.5785 25.0099 70.7479C26.9277 68.9174 30.0369 68.9174 31.9547 70.7479L37.8475 76.3732C38.8046 77.2868 40.1874 77.5462 41.3864 77.1517C41.4039 77.1457 41.4214 77.1398 41.439 77.1338C41.895 76.9755 42.3228 76.722 42.6885 76.3732C44.0252 75.0967 44.0252 73.0281 42.6885 71.7521L33.541 63.0205C31.515 61.0865 28.7671 60 25.9017 60H4.91084C2.19872 60 0.00191823 57.9023 0.00191823 55.3134C0.00191823 52.7246 2.19872 50.625 4.91084 50.625H25.9017C31.3719 50.625 36.6179 52.6992 40.4859 56.3913L49.6332 65.1229C52.9738 68.3117 54.1568 72.78 53.1824 76.875H78.2441C88.1887 76.875 96.2501 84.57 96.2501 94.0628C96.2501 100.103 91.1202 105 84.7921 105H34.1716C29.3467 105 24.6745 103.385 20.9679 100.437L1.76708 85.1632C-0.316428 83.5065 -0.59793 80.5508 1.13832 78.5618Z" fill="#0C098C"/>
</g>
</g>
<defs>
<clipPath id="clip0_3_6051">
<rect width="110" height="105" fill="white"/>
</clipPath>
</defs>
</svg>
