<svg width="110" height="105" viewBox="0 0 110 105" fill="none" xmlns="http://www.w3.org/2000/svg">
<g id="Diamond">
<g id="icon">
<path d="M90.7311 15.4702L103.111 32.8477C104.4 34.6574 105.089 36.7952 105.089 38.9836C105.089 41.6517 104.066 44.2273 102.21 46.2235L61.5351 90.0068C59.8774 91.791 57.4985 92.8125 55 92.8125C52.5015 92.8125 50.1226 91.791 48.4649 90.0068L7.78933 46.2235C5.93479 44.2273 4.91071 41.6517 4.91071 38.9836C4.91071 36.7952 5.60005 34.6574 6.88922 32.8477L19.2686 15.4702C20.7315 13.4167 23.1644 12.1875 25.7659 12.1875H84.2341C86.8356 12.1875 89.2681 13.4167 90.7311 15.4702Z" fill="#FF7972"/>
<path fill-rule="evenodd" clip-rule="evenodd" d="M64.1954 16.875L76.1138 36.0755H33.8862L45.8046 16.875H64.1954ZM11.8927 43.5755L52.139 86.8965C52.2767 87.045 52.4258 87.1815 52.5845 87.3045L33.407 43.5755H11.8927ZM76.7391 43.5755L57.4405 87.285C57.5899 87.1665 57.7305 87.0375 57.861 86.8965L98.1074 43.5755H76.7391ZM94.7925 12.8344C92.4149 9.4974 88.4612 7.5 84.2341 7.5H25.7659C21.5384 7.5 17.585 9.4974 15.2078 12.8344L2.82842 30.2119C0.985466 32.7989 0 35.8551 0 38.9836C0 42.7979 1.46399 46.4799 4.11519 49.3336L44.7907 93.117C47.3805 95.9048 51.0968 97.5 55 97.5C58.9032 97.5 62.6195 95.9048 65.2093 93.117L105.884 49.3336C108.536 46.4799 110 42.7979 110 38.9836C110 35.8551 109.015 32.7989 107.171 30.2119L94.7925 12.8344Z" fill="#0C098C"/>
</g>
</g>
</svg>
