<svg width="13" height="13" viewBox="0 0 13 13" fill="none" xmlns="http://www.w3.org/2000/svg">
<g id="Icon">
<path id="Vector" d="M4.91406 4.09375H8.91406C9.00692 4.09375 9.09794 4.11961 9.17693 4.16842C9.25592 4.21724 9.31975 4.28709 9.36128 4.37014C9.4028 4.4532 9.42038 4.54617 9.41204 4.63865C9.4037 4.73113 9.36978 4.81947 9.31406 4.89375L7.31406 7.56075C7.26749 7.62285 7.2071 7.67325 7.13767 7.70796C7.06824 7.74268 6.99169 7.76075 6.91406 7.76075C6.83644 7.76075 6.75988 7.74268 6.69046 7.70796C6.62103 7.67325 6.56064 7.62285 6.51406 7.56075L4.51406 4.89375C4.45835 4.81947 4.42442 4.73113 4.41608 4.63865C4.40774 4.54617 4.42532 4.4532 4.46685 4.37014C4.50838 4.28709 4.57221 4.21724 4.6512 4.16842C4.73019 4.11961 4.82121 4.09375 4.91406 4.09375Z" fill="#525252"/>
</g>
</svg>
