<svg width="37" height="30" viewBox="0 0 37 30" fill="none" xmlns="http://www.w3.org/2000/svg">
<path id="Vector" d="M18.0147 30L16.7151 29.1871C15.0043 28.1166 0.00639157 18.4726 0.00639157 9.66264C-0.0906429 7.19417 0.920416 4.7921 2.81857 2.98146C4.71672 1.17083 7.34757 0.0989056 10.1361 0C11.6753 0.0133877 13.1895 0.34555 14.5577 0.969892C15.9258 1.59423 17.1097 2.49341 18.0147 3.59543C18.9197 2.49341 20.1036 1.59423 21.4717 0.969892C22.8399 0.34555 24.3541 0.0133877 25.8933 0C28.6818 0.0989056 31.3127 1.17083 33.2108 2.98146C35.109 4.7921 36.1201 7.19417 36.023 9.66264C36.023 18.4726 21.0251 28.1166 19.3143 29.1871L18.0147 30ZM10.1361 3.98459C8.54228 4.08454 7.05737 4.73687 6.00373 5.79995C4.9501 6.86303 4.41279 8.25105 4.50847 9.66264C4.50847 14.8639 13.307 21.8953 18.0147 25.0843C22.7224 21.8967 31.5209 14.8639 31.5209 9.66264C31.6166 8.25105 31.0793 6.86303 30.0257 5.79995C28.972 4.73687 27.4871 4.08454 25.8933 3.98459C24.2996 4.08454 22.8146 4.73687 21.761 5.79995C20.7074 6.86303 20.1701 8.25105 20.2657 9.66264H15.7637C15.8593 8.25105 15.322 6.86303 14.2684 5.79995C13.2148 4.73687 11.7299 4.08454 10.1361 3.98459Z" fill="black"/>
</svg>
