<svg width="17" height="16" viewBox="0 0 17 16" fill="none" xmlns="http://www.w3.org/2000/svg">
<g id="Icon">
<path id="Vector" fill-rule="evenodd" clip-rule="evenodd" d="M9.33009 1.33398C9.98563 1.33562 10.3375 1.33995 10.6443 1.3491L10.7738 1.35332C10.9233 1.3586 11.0708 1.36516 11.2486 1.37327C11.9582 1.40564 12.4428 1.51835 12.8669 1.68317C13.3054 1.85352 13.6772 2.08148 14.0478 2.45212C14.4184 2.82278 14.6464 3.19458 14.8168 3.63299C14.9816 4.05705 15.0943 4.5417 15.1266 5.25131C15.1544 5.86082 15.1641 6.1147 15.1662 7.31501V8.68514C15.1641 9.88548 15.1544 10.1393 15.1266 10.7488C15.0943 11.4585 14.9816 11.9431 14.8168 12.3671C14.6464 12.8055 14.4184 13.1773 14.0478 13.548C13.6772 13.9187 13.3054 14.1466 12.8669 14.317C12.4428 14.4818 11.9582 14.5945 11.2486 14.6269C10.6391 14.6547 10.3852 14.6643 9.18489 14.6665H7.81476C6.61446 14.6643 6.36058 14.6547 5.75107 14.6269C5.04145 14.5945 4.55681 14.4818 4.13274 14.317C3.69433 14.1466 3.32253 13.9187 2.95187 13.548C2.58124 13.1773 2.35327 12.8055 2.18293 12.3671C2.01811 11.9431 1.90539 11.4585 1.87303 10.7488C1.86491 10.5711 1.85835 10.4235 1.85307 10.2739L1.84885 10.1445C1.83971 9.83774 1.83538 9.48581 1.83374 8.83034V7.16981C1.83538 6.51432 1.83971 6.16242 1.84885 5.85564L1.85307 5.72618C1.85835 5.57661 1.86491 5.42908 1.87303 5.25131C1.90539 4.5417 2.01811 4.05705 2.18293 3.63299C2.35327 3.19458 2.58124 2.82278 2.95187 2.45212C3.32253 2.08148 3.69433 1.85352 4.13274 1.68317C4.55681 1.51835 5.04145 1.40564 5.75107 1.37327C5.92884 1.36516 6.07637 1.3586 6.22594 1.35332L6.3554 1.3491C6.66217 1.33995 7.01408 1.33562 7.66956 1.33398H9.33009ZM9.19436 2.5349H7.80529C6.64641 2.53696 6.40467 2.54595 5.80582 2.57327C5.15581 2.60291 4.80279 2.71152 4.56787 2.80282C4.25667 2.92377 4.03459 3.06824 3.8013 3.30154C3.56799 3.53483 3.42352 3.75692 3.30258 4.06812C3.21128 4.30304 3.10267 4.65605 3.07303 5.30606C3.04571 5.90492 3.03672 6.14666 3.03466 7.30554V8.69461C3.03672 9.85348 3.04571 10.0952 3.07303 10.6941C3.10267 11.3441 3.21128 11.6971 3.30258 11.932C3.42352 12.2432 3.56802 12.4653 3.8013 12.6986C4.03459 12.9319 4.25667 13.0764 4.56787 13.1973C4.80279 13.2886 5.15581 13.3972 5.80582 13.4269C6.40461 13.4542 6.64629 13.4632 7.80523 13.4653L8.12923 13.4656C8.24469 13.4657 8.36796 13.4657 8.49983 13.4657H8.69129C8.75303 13.4657 8.81269 13.4657 8.87049 13.4656L9.19443 13.4653C10.0006 13.4638 10.363 13.459 10.7104 13.4471L10.8409 13.4422C10.9504 13.4379 11.0637 13.4328 11.1938 13.4269C11.8439 13.3972 12.1969 13.2886 12.4318 13.1973C12.743 13.0764 12.9651 12.9319 13.1984 12.6986C13.4317 12.4653 13.5762 12.2432 13.6971 11.932C13.7884 11.6971 13.897 11.3441 13.9266 10.6941C13.9326 10.5639 13.9376 10.4506 13.942 10.3411L13.9468 10.2106C13.9588 9.86314 13.9636 9.50081 13.965 8.69461L13.9654 8.37068C13.9655 8.25521 13.9655 8.13194 13.9655 8.00008V7.80868C13.9655 7.74694 13.9654 7.68721 13.9654 7.62948L13.965 7.30554C13.963 6.14666 13.954 5.90492 13.9266 5.30606C13.897 4.65605 13.7884 4.30304 13.6971 4.06812C13.5762 3.75692 13.4317 3.53483 13.1984 3.30154C12.9651 3.06824 12.743 2.92377 12.4318 2.80282C12.1969 2.71152 11.8439 2.60291 11.1938 2.57327C10.595 2.54595 10.3532 2.53696 9.19436 2.5349ZM8.49983 4.57652C10.3906 4.57652 11.9234 6.10929 11.9234 8.00008C11.9234 9.89088 10.3906 11.4236 8.49983 11.4236C6.60905 11.4236 5.07628 9.89088 5.07628 8.00008C5.07628 6.10929 6.60905 4.57652 8.49983 4.57652ZM8.49983 5.77777C7.27249 5.77777 6.27753 6.77274 6.27753 8.00008C6.27753 9.22741 7.27249 10.2224 8.49983 10.2224C9.72716 10.2224 10.7222 9.22741 10.7222 8.00008C10.7222 6.77274 9.72716 5.77777 8.49983 5.77777ZM12.0586 3.64122C12.5005 3.64122 12.8587 3.99941 12.8587 4.44126C12.8587 4.88311 12.5005 5.24128 12.0586 5.24128C11.6168 5.24128 11.2586 4.88311 11.2586 4.44126C11.2586 3.99941 11.6168 3.64122 12.0586 3.64122Z" fill="white"/>
</g>
</svg>
